<svg width="27" height="22" viewBox="0 0 27 22" fill="none" xmlns="http://www.w3.org/2000/svg">
<path opacity="0.5" d="M2.59361 15.1196C1.5312 13.7394 1 13.0493 1 11C1 8.95075 1.5312 8.26066 2.59361 6.88041C4.71495 4.12445 8.27264 1 13.5 1C18.7274 1 22.285 4.12445 24.4064 6.88041C25.4687 8.26066 26 8.95075 26 11C26 13.0493 25.4687 13.7394 24.4064 15.1196C22.285 17.8755 18.7274 21 13.5 21C8.27264 21 4.71495 17.8755 2.59361 15.1196Z" stroke="#2A85F3" stroke-width="1.875"/>
<path d="M17.25 11C17.25 13.0711 15.5711 14.75 13.5 14.75C11.4289 14.75 9.75 13.0711 9.75 11C9.75 8.92887 11.4289 7.25 13.5 7.25C15.5711 7.25 17.25 8.92887 17.25 11Z" stroke="#2A85F3" stroke-width="1.875"/>
</svg>
