<svg width="27" height="14" viewBox="0 0 27 14" fill="none" xmlns="http://www.w3.org/2000/svg">
<path d="M1.80778 0.578763C1.60287 0.0942231 1.04918 -0.130242 0.571077 0.0774236C0.0929719 0.285089 -0.128512 0.846232 0.0763954 1.33077L1.80778 0.578763ZM26.9236 1.33077C27.1285 0.846232 26.9071 0.285089 26.4289 0.0774236C25.9508 -0.130242 25.3971 0.0942231 25.1922 0.578763L26.9236 1.33077ZM13.5 8.9091C9.45146 8.9091 6.54458 6.86592 4.61477 4.75969C3.65014 3.70688 2.94288 2.65106 2.4774 1.85856C2.24521 1.46321 2.07465 1.1359 1.96355 0.910694C1.90803 0.798175 1.86747 0.711365 1.84157 0.654552C1.82864 0.626158 1.81937 0.605286 1.81374 0.59247C1.81093 0.586068 1.80877 0.581066 1.80778 0.578763C1.80775 0.578712 1.80782 0.578864 1.80778 0.578763C1.8079 0.579055 1.80778 0.578763 0.942087 0.954767C0.0763954 1.33077 0.076207 1.33034 0.0763954 1.33077C0.0764707 1.33096 0.0770233 1.33225 0.0771865 1.33263C0.0775005 1.33338 0.0778898 1.33428 0.0783294 1.3353C0.0791959 1.33736 0.0803134 1.33996 0.0816571 1.34309C0.084357 1.34934 0.0879989 1.35773 0.0925825 1.36818C0.10175 1.38907 0.11471 1.41822 0.131512 1.45508C0.165092 1.52878 0.214055 1.63337 0.278728 1.76444C0.407987 2.02645 0.600437 2.39514 0.858778 2.83499C1.37439 3.7129 2.15838 4.88433 3.23441 6.05865C5.38592 8.40689 8.75799 10.8181 13.5 10.8181V8.9091ZM17.6598 8.12104C16.4412 8.60721 15.0593 8.9091 13.5 8.9091V10.8181C15.3061 10.8181 16.9215 10.4671 18.3497 9.89747L17.6598 8.12104ZM26.0579 0.954767C25.1922 0.578763 25.192 0.578941 25.1922 0.578763C25.1923 0.578559 25.1928 0.577401 25.1928 0.577541C25.1927 0.577796 25.1923 0.578712 25.1915 0.58029C25.1902 0.583434 25.1876 0.589186 25.184 0.597446C25.1767 0.613979 25.1649 0.640527 25.1485 0.676366C25.1154 0.748044 25.0641 0.856706 24.9937 0.996346C24.8531 1.27583 24.6376 1.67805 24.3442 2.15517C23.7559 3.11218 22.8635 4.35536 21.6459 5.51355L22.9351 6.9055C24.3027 5.60455 25.294 4.22033 25.943 3.16475C26.2684 2.63559 26.51 2.18521 26.6719 1.86366C26.7527 1.70279 26.8139 1.57384 26.8557 1.48302C26.8766 1.43761 26.8926 1.40171 26.9039 1.37608C26.9096 1.36326 26.9141 1.35302 26.9174 1.34543C26.919 1.34164 26.9203 1.33852 26.9214 1.33607C26.9219 1.33484 26.9223 1.33379 26.9226 1.33291C26.9229 1.33246 26.9235 1.33113 26.9236 1.33077C26.9236 1.33086 26.9238 1.33059 26.9236 1.33077C26.9238 1.33056 26.9236 1.33077 26.0579 0.954767ZM21.6459 5.51355C20.5672 6.5396 19.2439 7.48915 17.6598 8.12104L18.3497 9.89747C20.2003 9.15931 21.7212 8.06021 22.9351 6.9055L21.6459 5.51355Z" fill="#2A85F3"/>
<path opacity="0.5" d="M14.4417 9.86375C14.4417 9.3366 14.02 8.90923 13.4998 8.90923C12.9797 8.90923 12.558 9.3366 12.558 9.86375H14.4417ZM18.794 8.48874C18.5103 8.04686 17.9269 7.92175 17.4909 8.20925C17.055 8.49675 16.9314 9.08805 17.2152 9.52993L18.794 8.48874ZM9.78453 9.52993C10.0682 9.08805 9.94476 8.49675 9.50876 8.20925C9.07276 7.92175 8.48935 8.04686 8.20565 8.48874L9.78453 9.52993ZM6.43146 11.2521C6.14776 11.694 6.27123 12.2853 6.70723 12.5728C7.14323 12.8603 7.72664 12.7352 8.01034 12.2933L6.43146 11.2521ZM22.9563 5.53469C22.5885 5.16192 21.9923 5.16192 21.6244 5.53469C21.2566 5.90746 21.2566 6.51174 21.6244 6.88451L22.9563 5.53469ZM23.5081 8.79355C23.8759 9.16632 24.4722 9.16632 24.84 8.79355C25.2078 8.42077 25.2078 7.8165 24.84 7.44373L23.5081 8.79355ZM12.558 13.0455C12.558 13.5726 12.9797 14 13.4998 14C14.02 14 14.4417 13.5726 14.4417 13.0455H12.558ZM18.9894 12.2933C19.2731 12.7352 19.8565 12.8603 20.2924 12.5728C20.7284 12.2853 20.8519 11.694 20.5682 11.2521L18.9894 12.2933ZM5.3753 6.88451C5.74311 6.51174 5.74311 5.90746 5.3753 5.53469C5.00749 5.16192 4.41114 5.16192 4.04333 5.53469L5.3753 6.88451ZM2.15965 7.44373C1.79184 7.8165 1.79184 8.42077 2.15965 8.79355C2.52745 9.16632 3.1238 9.16632 3.49161 8.79355L2.15965 7.44373ZM8.20565 8.48874L6.43146 11.2521L8.01034 12.2933L9.78453 9.52993L8.20565 8.48874ZM21.6244 6.88451L23.5081 8.79355L24.84 7.44373L22.9563 5.53469L21.6244 6.88451ZM12.558 9.86375V13.0455H14.4417V9.86375H12.558ZM17.2152 9.52993L18.9894 12.2933L20.5682 11.2521L18.794 8.48874L17.2152 9.52993ZM4.04333 5.53469L2.15965 7.44373L3.49161 8.79355L5.3753 6.88451L4.04333 5.53469Z" fill="#2A85F3"/>
</svg>
