<svg width="17" height="18" viewBox="0 0 17 18" fill="none" xmlns="http://www.w3.org/2000/svg">
<path d="M14.2452 3.56828e-06L11.1101 0.0580606C10.5557 0.0534794 10.1045 0.529339 10.1023 1.12088C10.1001 1.71243 10.5478 2.19572 11.1022 2.2003L12.6943 2.21345L8.97969 6.13099C6.40283 4.18909 2.84654 4.83782 1.03649 7.57993C-0.773561 10.322 -0.151946 14.1194 2.42489 16.0613C5.00172 18.0032 8.55804 17.3544 10.3681 14.6123C11.7401 12.5338 11.7503 9.75833 10.3936 7.65726L14.1082 3.73972L14.1019 5.4385C14.0998 6.03005 14.5475 6.51333 15.1019 6.51792C15.6563 6.5225 16.1075 6.04664 16.1096 5.45509L15.767 1.7077C15.7721 0.327432 15.5388 0.0106932 14.2452 3.56828e-06ZM5.70131 15.0094C3.66848 14.9926 2.027 13.2206 2.03494 11.0515C2.04288 8.88251 3.69725 7.13773 5.73008 7.15453C7.76291 7.17133 9.4044 8.94334 9.39645 11.1124C9.38631 13.2804 7.73324 15.0238 5.70131 15.0094Z" fill="#2B85F5"/>
</svg>
