<svg width="32" height="32" viewBox="0 0 32 32" fill="none" xmlns="http://www.w3.org/2000/svg">
<path d="M15.9999 16.0001C16.7333 16.0001 17.361 15.739 17.8833 15.2167C18.4055 14.6945 18.6666 14.0667 18.6666 13.3334C18.6666 12.6001 18.4055 11.9723 17.8833 11.4501C17.361 10.9279 16.7333 10.6667 15.9999 10.6667C15.2666 10.6667 14.6388 10.9279 14.1166 11.4501C13.5944 11.9723 13.3333 12.6001 13.3333 13.3334C13.3333 14.0667 13.5944 14.6945 14.1166 15.2167C14.6388 15.739 15.2666 16.0001 15.9999 16.0001ZM15.9999 29.3334C12.4221 26.289 9.74992 23.4612 7.98325 20.8501C6.21659 18.239 5.33325 15.8223 5.33325 13.6001C5.33325 10.2667 6.40547 7.61119 8.54992 5.63341C10.6944 3.65564 13.1777 2.66675 15.9999 2.66675C18.8221 2.66675 21.3055 3.65564 23.4499 5.63341C25.5944 7.61119 26.6666 10.2667 26.6666 13.6001C26.6666 15.8223 25.7833 18.239 24.0166 20.8501C22.2499 23.4612 19.5777 26.289 15.9999 29.3334Z" stroke="#2B85F5" stroke-width="2"/>
</svg>
