<svg width="28" height="29" viewBox="0 0 28 29" fill="none" xmlns="http://www.w3.org/2000/svg">
<path d="M11.6456 1.45126C12.1977 -0.483811 14.94 -0.483812 15.4921 1.45126L17.1961 7.42381C17.4411 8.28278 18.2261 8.87511 19.1193 8.87511H25.1336C27.0076 8.87511 27.8525 11.2213 26.4086 12.416L21.1145 16.7966C20.5028 17.3028 20.2484 18.1228 20.4662 18.8862L22.3803 25.5953C22.9193 27.4847 20.6958 28.9374 19.182 27.6849L14.8439 24.0953C14.1041 23.4831 13.0336 23.4831 12.2938 24.0953L7.95568 27.6849C6.44193 28.9374 4.21837 27.4847 4.7574 25.5953L6.67147 18.8862C6.88928 18.1228 6.6349 17.3028 6.02322 16.7966L0.729107 12.416C-0.714753 11.2213 0.130059 8.87511 2.00412 8.87511H8.01838C8.91163 8.87511 9.69658 8.28278 9.94165 7.42381L11.6456 1.45126Z" fill="#D9D9D9"/>
</svg>
