<svg width="14" height="14" viewBox="0 0 14 14" fill="none" xmlns="http://www.w3.org/2000/svg">
<path d="M0.583374 2.33342V5.83342M0.583374 5.83342H4.08337M0.583374 5.83342L3.29004 3.29008C3.91698 2.66283 4.69259 2.20462 5.54451 1.9582C6.39643 1.71178 7.2969 1.68519 8.16187 1.8809C9.02685 2.07661 9.82816 2.48825 10.491 3.07741C11.1539 3.66657 11.6567 4.41404 11.9525 5.25008M13.4167 11.6668V8.16675M13.4167 8.16675H9.91671M13.4167 8.16675L10.71 10.7101C10.0831 11.3373 9.30749 11.7955 8.45557 12.042C7.60365 12.2884 6.70319 12.315 5.83821 12.1193C4.97323 11.9236 4.17192 11.5119 3.50906 10.9228C2.8462 10.3336 2.34339 9.58613 2.04754 8.75009" stroke="white" stroke-linecap="round" stroke-linejoin="round"/>
</svg>
