<svg width="30" height="23" viewBox="0 0 30 23" fill="none" xmlns="http://www.w3.org/2000/svg">
<path d="M29.1177 11.3342L1.31106 0.0817822C1.17521 0.0256716 1.02249 -0.00246014 0.867994 0.000168718C0.713498 0.00279758 0.562578 0.036096 0.430158 0.0967714C0.297738 0.157447 0.188405 0.243398 0.112968 0.346125C0.0375316 0.448852 -0.00139475 0.564798 3.81778e-05 0.682497V9.18041C-0.00153732 9.34654 0.0772382 9.5073 0.221337 9.63202C0.365436 9.75675 0.564773 9.8367 0.781322 9.85663L23.0213 11.9743L0.818315 13.382C0.595105 13.3954 0.386763 13.4725 0.235023 13.5979C0.0832828 13.7233 -0.000649728 13.8877 3.81778e-05 14.0583V21.8619C-0.00116421 21.9766 0.03598 22.0897 0.107975 22.1905C0.17997 22.2913 0.284449 22.3764 0.411578 22.438C0.538707 22.4995 0.684306 22.5354 0.834672 22.5423C0.985039 22.5492 1.13523 22.5268 1.2711 22.4773L29.0792 12.5491C29.2304 12.4963 29.359 12.4122 29.4505 12.3064C29.5419 12.2007 29.5926 12.0774 29.5966 11.9508C29.6006 11.8242 29.5578 11.6992 29.4731 11.5902C29.3885 11.4812 29.2653 11.3925 29.1177 11.3342Z" fill="#2B85F5"/>
</svg>
